<svg xmlns="http://www.w3.org/2000/svg" xmlns:xlink="http://www.w3.org/1999/xlink" width="500" zoomAndPan="magnify" viewBox="0 0 375 374.999991" height="500" preserveAspectRatio="xMidYMid meet" version="1.0"><defs><clipPath id="7f66ab9cd1"><path d="M 133.03125 105.28125 L 241.78125 105.28125 L 241.78125 269.53125 L 133.03125 269.53125 Z M 133.03125 105.28125 " clip-rule="nonzero"/></clipPath></defs><rect x="-37.5" width="450" fill="#ffffff" y="-37.499999" height="449.999989" fill-opacity="1"/><rect x="-37.5" width="450" fill="#ff9f6b" y="-37.499999" height="449.999989" fill-opacity="1"/><g clip-path="url(#7f66ab9cd1)"><path fill="#ffffff" d="M 242.105469 146.617188 L 242.105469 132.992188 L 228.476562 132.992188 L 187.601562 105.738281 L 146.722656 132.992188 L 133.097656 132.992188 L 133.097656 146.617188 L 146.722656 146.617188 L 146.722656 187.496094 L 133.097656 187.496094 L 133.097656 201.117188 L 160.351562 201.117188 L 146.722656 269.25 L 160.621094 269.25 L 187.601562 235.355469 L 214.578125 269.25 L 228.476562 269.25 L 214.851562 201.117188 L 242.105469 201.117188 L 242.105469 187.496094 L 228.476562 187.496094 L 228.476562 146.617188 Z M 187.601562 122.117188 L 203.914062 132.992188 L 171.289062 132.992188 Z M 165.28125 245.945312 L 171.453125 215.066406 L 180.65625 226.625 Z M 174.242188 201.117188 L 200.960938 201.117188 L 187.601562 217.902344 Z M 194.546875 226.625 L 203.746094 215.066406 L 209.921875 245.941406 Z M 214.851562 187.496094 L 160.351562 187.496094 L 160.351562 146.617188 L 214.851562 146.617188 Z M 214.851562 187.496094 " fill-opacity="1" fill-rule="nonzero"/></g></svg>